<svg xmlns="http://www.w3.org/2000/svg" data-name="Layer 1" viewBox="0 0 64 64" x="0px" y="0px"><title>box-1</title><path d="M61.37,28.84,56,21.5l5-8.65a1.6,1.6,0,0,0-.85-2.3L35.3,1.67a1.6,1.6,0,0,0-1.91.69l-4.13,6.9-4.12-6.9A1.6,1.6,0,0,0,23,1.8L3.56,13.09A1.6,1.6,0,0,0,3,15.27L8,24,2.88,32.52a1.63,1.63,0,0,0,.81,2.33l4.5,1.69V53.09A1.59,1.59,0,0,0,9.27,54.6L34,63a1.4,1.4,0,0,0,.51.08,1.68,1.68,0,0,0,.45-.06,1.42,1.42,0,0,0,.36-.14L54.91,52.07a1.59,1.59,0,0,0,.83-1.4V34.33l5.18-3.19a1.59,1.59,0,0,0,.73-1.05A1.64,1.64,0,0,0,61.37,28.84ZM35.46,5.13l21.83,7.79-4.17,7.23L31.31,12.07ZM6.55,15.05,23.21,5.36l4.17,7-16.64,10Zm21.71-.91v15.1l-16-5.48ZM10.14,33.85,6.62,32.53l4.27-7.11L33,33l-4.39,7.22L10.15,33.82ZM33.5,59.49,11.39,51.94V36.37l17.33,6a1.25,1.25,0,0,0,.32,0,1,1,0,0,0,.86-.48L33.5,36Zm.91-28.15-4.15-1.42V13.81l21.48,8ZM52.54,49.73l-17,9.39V36l3.65,5.91a1,1,0,0,0,.85.47,1,1,0,0,0,.52-.14l12-7.32Zm1.12-17.87h0L40.33,40l-4.42-7.17,17.4-9.6,4.46,6.14Z"/><polygon points="23.33 53.03 25.33 53.71 25.33 48.2 23.33 47.52 23.33 53.03"/><polygon points="26.26 54.03 28.26 54.71 28.26 49.2 26.26 48.52 26.26 54.03"/><polygon points="29.2 55.03 31.2 55.71 31.2 50.2 29.2 49.52 29.2 55.03"/></svg>