<svg xmlns="http://www.w3.org/2000/svg" data-name="Layer 1" viewBox="0 0 64 64" x="0px" y="0px"><title>box-8</title><path d="M19.62,59.29l9-1.16,6.86,4.4c.6.38,1.63,1.08,2.43.36L57.62,45.31c.8-.71,1.36-1.49.32-2L52.2,40.5l8-.31a1.6,1.6,0,0,0,1.53-1.65l-.61-22.43a1.6,1.6,0,0,0-1.63-1.56l-10.07.23-5-8.58a1.58,1.58,0,0,0-1.12-.77A1.59,1.59,0,0,0,42,5.79L38.35,8.93,23.83,1A1.6,1.6,0,0,0,22,1.22L2.77,18.84a1.42,1.42,0,0,0-.32.41,2.47,2.47,0,0,0-.17.42,1.75,1.75,0,0,0,0,.4l.09,22.42a1.6,1.6,0,0,0,.83,1.4L17.5,51.72l.32,6.07a1.6,1.6,0,0,0,1.8,1.5ZM54.33,44,36.45,59.87,31,56.4,48.56,41.11ZM58,17.79l.52,19.26-8.13.32L49.61,18ZM48.39,37.28,35.14,30.05,47.63,18.6ZM39.77,11.93l2.86-2.46,4.19,7.16L29.59,32.42,25.36,25.1,39.8,12ZM6.08,20.15,23.3,4.35,37,11.82,23.42,24.16a1,1,0,0,0-.21.26,1,1,0,0,0,0,1l3.48,6ZM30.35,34.43l3.23-3,14.14,7.72-17.28,15ZM5.52,41.53,5.44,22.08l20.34,11.1-6.93.37a1,1,0,0,0-.83.52,1.06,1.06,0,0,0-.12.53l.66,14Zm15.15,9.54h0l-.74-15.58,8.41-.44.09,19.88-7.52,1Z"/><polygon points="16.62 14.31 15.07 15.74 19.9 18.38 21.46 16.95 16.62 14.31"/><polygon points="14.34 16.41 12.79 17.83 17.62 20.48 19.18 19.05 14.34 16.41"/><polygon points="12.05 18.51 10.5 19.93 15.33 22.58 16.89 21.15 12.05 18.51"/></svg>
