<svg xmlns="http://www.w3.org/2000/svg" data-name="Layer 1" viewBox="0 0 64 64" x="0px" y="0px"><title>box-3</title><path d="M61.7,37.72l-9.41-2.57V17.93a1.53,1.53,0,0,0-1.08-1.45l-18.73-5.8a1.72,1.72,0,0,0-.9,0l-18.74,5.8a1.53,1.53,0,0,0-1.07,1.45V35.15L2.3,37.72a1.52,1.52,0,0,0,0,2.93L8.6,42.44,3.28,44.67a1.52,1.52,0,0,0,.15,2.85l18.7,5.79a1.31,1.31,0,0,0,.44.07,1.45,1.45,0,0,0,.59-.12L32,49.54l8.83,3.72a1.46,1.46,0,0,0,1,.05l18.71-5.79a1.52,1.52,0,0,0,.15-2.85L55.34,42.4l6.36-1.74a1.52,1.52,0,0,0,0-2.94ZM32,13.73l14.56,4.5L42.3,19.55a.82.82,0,0,0-.23-.11l-14-4.5ZM8.39,39.22,12.9,38v2.5Zm14.11,11L8.33,45.85l6.1-2.54v0l14,4.45Zm8.55-3.65L14.8,41.41V20.52h0V19.4l16.24,5ZM17.47,18.23l5.59-1.72L37.3,21.1,32,22.72ZM33,24.43l7.14-2.2v5.55l3-.94V21.29l6.12-1.89v22h0v0L33,46.59ZM55.69,45.85l-14.2,4.39-5.92-2.49,14-4.46Zm-4.55-5.44,0-2.41,4.38,1.19Z"/><polygon points="18.37 22.3 16.47 21.66 16.47 26.89 18.37 27.54 18.37 22.3"/><polygon points="21.15 23.25 19.25 22.61 19.25 27.84 21.15 28.49 21.15 23.25"/><polygon points="23.95 24.2 22.05 23.56 22.05 28.79 23.95 29.44 23.95 24.2"/></svg>